# xmcd
#
# Track frame offsets:
#	150
#	14197
#	32215
#	43602
#	58032
#	74772
#	86885
#	108287
#	124037
#	139447
#	151907
#	170782
#	186232
#	203547
#	221102
#	235545
#	249882
#	267522
#	284015
#	297670
#
# Disc length: 4167 seconds
#
# Revision: 9
# Processed by: cddbd v1.5.2PL0 Copyright (c) Steve Scherf et al.
# Submitted via: audiograbber 1.83.01
#
DISCID=44104514
DTITLE=Various Artist - Absolute New Country 3
DYEAR=1995
DGENRE=Country
TTITLE0=Lee Roy Parnell - Knock yourself out (1995)
TTITLE1=Emmylou Harris - Thanks to you (1994)
TTITLE2=John Michael Montgomery - Sold (The grundy county auction incident) (19
TTITLE2=95)
TTITLE3=Carlene Carter - Hurricane (1995)
TTITLE4=Brooks and Dunn - If that´s the way you want it (1994)
TTITLE5=Travis Tritt (Feat. Marty Stuart) - The whiskey ain´t workin´
TTITLE6=Lari White - If I´m not already cracy (1994)
TTITLE7=Gorge Ducas - Hello cruel world (1994)
TTITLE8=Tamra Rosanes (Feat. John Prine) - I just want to dance with you (1995)
TTITLE9=Pam Tilles - I was blown away (1994)
TTITLE10=Clint Black - I can get by (1994)
TTITLE11=Martina McBride - Independence day (1993)
TTITLE12=Alan Jackson - I don´t even know your name (1994)
TTITLE13=Ester Brohus - Wall of tears (1995)
TTITLE14=Ricky Lynn Gregg - Dog house blues (1994)
TTITLE15=Faith Hill - Let´s go to Vegas (1995)
TTITLE16=Blackhawk - Stone by stone (1993)
TTITLE17=John Berry - Think about it all the time (1993)
TTITLE18=Tanya Tucker - If your heart ain´t busy tonight (1993)
TTITLE19=Diamond Rio - Finish what we started (1994)
EXTD=
EXTT0=
EXTT1=
EXTT2=
EXTT3=
EXTT4=
EXTT5=
EXTT6=
EXTT7=
EXTT8=
EXTT9=
EXTT10=
EXTT11=
EXTT12=
EXTT13=
EXTT14=
EXTT15=
EXTT16=
EXTT17=
EXTT18=
EXTT19=
PLAYORDER=
